<svg xmlns="http://www.w3.org/2000/svg" width="640" height="320" viewBox="0 0 640 320" role="img" aria-labelledby="title-4 desc-4"><title id="title-4">长规划期产品排序</title><desc id="desc-4">较长规划期内的产品序列包含切换步骤、顺序安排和软偏好。</desc><defs><marker id="arrow-4" viewBox="0 0 10 10" refX="8" refY="5" markerWidth="6" markerHeight="6" orient="auto-start-reverse"><path d="M1 1 L9 5 L1 9" fill="none" stroke="#196748" stroke-width="1.6" stroke-linecap="round" stroke-linejoin="round" /></marker></defs><g font-family="Arial, &quot;Noto Sans CJK SC&quot;, &quot;Microsoft YaHei&quot;, sans-serif"><rect width="640" height="320" fill="#f3f6f4" /><text x="24" y="35" fill="#196748" font-size="16" font-weight="600">案例 04</text><text x="116" y="35" fill="#13241d" font-size="20" font-weight="600">长规划期产品排序</text><path d="M24 51H616" stroke="#b5c7bb" stroke-width="1" /><text x="31" y="84" fill="#196748" font-size="18" font-weight="600" text-anchor="start"><tspan x="31" dy="0">长规划期</tspan></text><path d="M166 78 L605 78" fill="none" stroke="#196748" stroke-width="2" stroke-linecap="round" stroke-linejoin="round" marker-end="url(#arrow-4)" /><path d="M211 72 L211 84" fill="none" stroke="#b5c7bb" stroke-width="2" stroke-linecap="round" stroke-linejoin="round" /><path d="M324 72 L324 84" fill="none" stroke="#b5c7bb" stroke-width="2" stroke-linecap="round" stroke-linejoin="round" /><path d="M437 72 L437 84" fill="none" stroke="#b5c7bb" stroke-width="2" stroke-linecap="round" stroke-linejoin="round" /><path d="M550 72 L550 84" fill="none" stroke="#b5c7bb" stroke-width="2" stroke-linecap="round" stroke-linejoin="round" /><text x="337" y="116" fill="#56695d" font-size="17" font-weight="500" text-anchor="middle"><tspan x="337" dy="0">切换</tspan></text><path d="M224 120 L224 139" fill="none" stroke="#b5c7bb" stroke-width="1" stroke-linecap="round" stroke-linejoin="round" /><path d="M416 120 L416 139" fill="none" stroke="#b5c7bb" stroke-width="1" stroke-linecap="round" stroke-linejoin="round" /><rect x="31" y="144" width="155" height="57" rx="8" fill="#196748" stroke="#196748" stroke-width="1.5" /><text x="108.5" y="177.5" fill="#ffffff" font-size="19" font-weight="500" text-anchor="middle"><tspan x="108.5" dy="0">产品 A</tspan></text><path d="M201 172L224 149L247 172L224 195Z" fill="#f3f6f4" stroke="#196748" stroke-width="2" stroke-linecap="round" stroke-linejoin="round" /><rect x="264" y="144" width="114" height="57" rx="8" fill="#d5f17a" stroke="#d5f17a" stroke-width="1.5" /><text x="321.0" y="177.5" fill="#13241d" font-size="18" font-weight="500" text-anchor="middle"><tspan x="321.0" dy="0">产品 B</tspan></text><path d="M393 172L416 149L439 172L416 195Z" fill="#f3f6f4" stroke="#196748" stroke-width="2" stroke-linecap="round" stroke-linejoin="round" /><rect x="456" y="144" width="155" height="57" rx="8" fill="#ffffff" stroke="#196748" stroke-width="1.5" /><text x="533.5" y="177.5" fill="#13241d" font-size="19" font-weight="500" text-anchor="middle"><tspan x="533.5" dy="0">产品 C</tspan></text><path d="M186 172 L200 172" fill="none" stroke="#196748" stroke-width="2" stroke-linecap="round" stroke-linejoin="round" marker-end="url(#arrow-4)" /><path d="M247 172 L262 172" fill="none" stroke="#196748" stroke-width="2" stroke-linecap="round" stroke-linejoin="round" marker-end="url(#arrow-4)" /><path d="M378 172 L392 172" fill="none" stroke="#196748" stroke-width="2" stroke-linecap="round" stroke-linejoin="round" marker-end="url(#arrow-4)" /><path d="M439 172 L454 172" fill="none" stroke="#196748" stroke-width="2" stroke-linecap="round" stroke-linejoin="round" marker-end="url(#arrow-4)" /><path d="M107 214V233H533V214" fill="none" stroke="#4c8c87" stroke-width="2" stroke-linecap="round" stroke-linejoin="round" stroke-dasharray="5 5" /><text x="320" y="260" fill="#196748" font-size="18" font-weight="600" text-anchor="middle"><tspan x="320" dy="0">排序与软偏好</tspan></text><path d="M24 278H616" stroke="#b5c7bb" stroke-width="1" /><text x="24" y="303" fill="#56695d" font-size="16">产品顺序仅作示意；不预设切换时长</text></g></svg>