<svg xmlns="http://www.w3.org/2000/svg" width="640" height="320" viewBox="0 0 640 320" role="img" aria-labelledby="title-23 desc-23"><title id="title-23">三天生鲜杂货配送</title><desc id="desc-23">三个日面板展示已确认订单进入已提交的配送路线。批次不可撤销，且每日订单必须清空。路线形状仅作示意，不表示距离或订单数量。</desc><defs><marker id="arrow-23" viewBox="0 0 10 10" refX="8" refY="5" markerWidth="6" markerHeight="6" orient="auto-start-reverse"><path d="M1 1 L9 5 L1 9" fill="none" stroke="#196748" stroke-width="1.6" stroke-linecap="round" stroke-linejoin="round" /></marker></defs><g font-family="Arial, &quot;Noto Sans CJK SC&quot;, &quot;Microsoft YaHei&quot;, sans-serif"><rect width="640" height="320" fill="#f3f6f4" /><text x="24" y="35" fill="#196748" font-size="16" font-weight="600">案例 23</text><text x="116" y="35" fill="#13241d" font-size="20" font-weight="600">三天生鲜杂货配送</text><path d="M24 51H616" stroke="#b5c7bb" stroke-width="1" /><rect x="24" y="76" width="184" height="183" rx="8" fill="#ffffff" stroke="#b5c7bb" stroke-width="1.5" /><text x="42" y="104" fill="#196748" font-size="21" font-weight="600" text-anchor="start"><tspan x="42" dy="0">第 1 天</tspan></text><text x="116" y="137" fill="#13241d" font-size="17" font-weight="400" text-anchor="middle"><tspan x="116" dy="0">已确认订单</tspan></text><path d="M116 146 L116 169" fill="none" stroke="#196748" stroke-width="2" stroke-linecap="round" stroke-linejoin="round" marker-end="url(#arrow-23)" /><path d="M59 201 L92 181 L133 211 L175 184" fill="none" stroke="#196748" stroke-width="2" stroke-linecap="round" stroke-linejoin="round" marker-end="url(#arrow-23)" /><circle cx="59" cy="201" r="6" fill="#d5f17a" stroke="#196748" stroke-width="2" /><circle cx="92" cy="181" r="6" fill="#d5f17a" stroke="#196748" stroke-width="2" /><circle cx="133" cy="211" r="6" fill="#d5f17a" stroke="#196748" stroke-width="2" /><circle cx="175" cy="184" r="6" fill="#d5f17a" stroke="#196748" stroke-width="2" /><text x="116" y="244" fill="#13241d" font-size="18" font-weight="500" text-anchor="middle"><tspan x="116" dy="0">配送并清空订单</tspan></text><path d="M212 168 L223 168" fill="none" stroke="#196748" stroke-width="2" stroke-linecap="round" stroke-linejoin="round" marker-end="url(#arrow-23)" /><rect x="228" y="76" width="184" height="183" rx="8" fill="#ffffff" stroke="#b5c7bb" stroke-width="1.5" /><text x="246" y="104" fill="#196748" font-size="21" font-weight="600" text-anchor="start"><tspan x="246" dy="0">第 2 天</tspan></text><text x="320" y="137" fill="#13241d" font-size="17" font-weight="400" text-anchor="middle"><tspan x="320" dy="0">已确认订单</tspan></text><path d="M320 146 L320 169" fill="none" stroke="#196748" stroke-width="2" stroke-linecap="round" stroke-linejoin="round" marker-end="url(#arrow-23)" /><path d="M263 201 L296 181 L337 211 L379 184" fill="none" stroke="#196748" stroke-width="2" stroke-linecap="round" stroke-linejoin="round" marker-end="url(#arrow-23)" /><circle cx="263" cy="201" r="6" fill="#d5f17a" stroke="#196748" stroke-width="2" /><circle cx="296" cy="181" r="6" fill="#d5f17a" stroke="#196748" stroke-width="2" /><circle cx="337" cy="211" r="6" fill="#d5f17a" stroke="#196748" stroke-width="2" /><circle cx="379" cy="184" r="6" fill="#d5f17a" stroke="#196748" stroke-width="2" /><text x="320" y="244" fill="#13241d" font-size="18" font-weight="500" text-anchor="middle"><tspan x="320" dy="0">配送并清空订单</tspan></text><path d="M416 168 L427 168" fill="none" stroke="#196748" stroke-width="2" stroke-linecap="round" stroke-linejoin="round" marker-end="url(#arrow-23)" /><rect x="432" y="76" width="184" height="183" rx="8" fill="#ffffff" stroke="#b5c7bb" stroke-width="1.5" /><text x="450" y="104" fill="#196748" font-size="21" font-weight="600" text-anchor="start"><tspan x="450" dy="0">第 3 天</tspan></text><text x="524" y="137" fill="#13241d" font-size="17" font-weight="400" text-anchor="middle"><tspan x="524" dy="0">已确认订单</tspan></text><path d="M524 146 L524 169" fill="none" stroke="#196748" stroke-width="2" stroke-linecap="round" stroke-linejoin="round" marker-end="url(#arrow-23)" /><path d="M467 201 L500 181 L541 211 L583 184" fill="none" stroke="#196748" stroke-width="2" stroke-linecap="round" stroke-linejoin="round" marker-end="url(#arrow-23)" /><circle cx="467" cy="201" r="6" fill="#d5f17a" stroke="#196748" stroke-width="2" /><circle cx="500" cy="181" r="6" fill="#d5f17a" stroke="#196748" stroke-width="2" /><circle cx="541" cy="211" r="6" fill="#d5f17a" stroke="#196748" stroke-width="2" /><circle cx="583" cy="184" r="6" fill="#d5f17a" stroke="#196748" stroke-width="2" /><text x="524" y="244" fill="#13241d" font-size="18" font-weight="500" text-anchor="middle"><tspan x="524" dy="0">配送并清空订单</tspan></text><path d="M24 278H616" stroke="#b5c7bb" stroke-width="1" /><text x="24" y="303" fill="#56695d" font-size="16">滚动提交批次；清空当日已确认订单</text></g></svg>