<svg xmlns="http://www.w3.org/2000/svg" width="640" height="320" viewBox="0 0 640 320" role="img" aria-labelledby="title-20 desc-20"><title id="title-20">As-of long-only allocation</title><desc id="desc-20">Historical information available as of time t feeds nonnegative portfolio weights. Future information is excluded, and the resulting trading trajectory is evaluated in a fixed backtest.</desc><defs><marker id="arrow-20" viewBox="0 0 10 10" refX="8" refY="5" markerWidth="6" markerHeight="6" orient="auto-start-reverse"><path d="M1 1 L9 5 L1 9" fill="none" stroke="#196748" stroke-width="1.6" stroke-linecap="round" stroke-linejoin="round"/></marker></defs><g font-family="Inter, Arial, sans-serif"><rect width="640" height="320" fill="#f3f6f4"/><text x="24" y="35" fill="#196748" font-size="16" font-weight="600">CASE 20</text><text x="116" y="35" fill="#13241d" font-size="20" font-weight="600">As-of long-only allocation</text><path d="M24 51H616" stroke="#b5c7bb" stroke-width="1"/><text x="31" y="80" fill="#13241d" font-size="18" font-weight="600" text-anchor="start"><tspan x="31" dy="0">Information timeline</tspan></text><rect x="30" y="94" width="275" height="40" rx="2" fill="#d5f17a" stroke="#d5f17a" stroke-width="1.5"/><rect x="305" y="94" width="303" height="40" rx="2" fill="#ffffff" stroke="#b5c7bb" stroke-width="1.5" stroke-dasharray="4 4"/><text x="166" y="120" fill="#13241d" font-size="18" font-weight="400" text-anchor="middle"><tspan x="166" dy="0">Available history</tspan></text><text x="464" y="120" fill="#56695d" font-size="18" font-weight="400" text-anchor="middle"><tspan x="464" dy="0">Future data excluded</tspan></text><path d="M305 87 L305 148" fill="none" stroke="#196748" stroke-width="3" stroke-linecap="round" stroke-linejoin="round"/><text x="305" y="166" fill="#196748" font-size="17" font-weight="600" text-anchor="middle"><tspan x="305" dy="0">as of t</tspan></text><path d="M168 141 V158 H92 V218 H124" fill="none" stroke="#196748" stroke-width="2" stroke-linecap="round" stroke-linejoin="round" marker-end="url(#arrow-20)"/><path d="M139 246 L283 246" fill="none" stroke="#196748" stroke-width="2" stroke-linecap="round" stroke-linejoin="round"/><rect x="157" y="213" width="24" height="33" rx="1" fill="#d5f17a" stroke="#196748" stroke-width="1.5"/><rect x="197" y="184" width="24" height="62" rx="1" fill="#d5f17a" stroke="#196748" stroke-width="1.5"/><rect x="237" y="200" width="24" height="46" rx="1" fill="#d5f17a" stroke="#196748" stroke-width="1.5"/><text x="211" y="180" fill="#13241d" font-size="18" font-weight="600" text-anchor="middle"><tspan x="211" dy="0">Weights ≥ 0</tspan></text><path d="M292 223 L345 223" fill="none" stroke="#196748" stroke-width="2" stroke-linecap="round" stroke-linejoin="round" marker-end="url(#arrow-20)"/><rect x="360" y="184" width="248" height="77" rx="4" fill="#ffffff" stroke="#196748" stroke-width="1.5"/><text x="484" y="210" fill="#13241d" font-size="18" font-weight="600" text-anchor="middle"><tspan x="484" dy="0">Fixed backtest</tspan></text><path d="M379 243 H423 V234 H466 V243 H510 V230 H586" fill="none" stroke="#4c8c87" stroke-width="3" stroke-linecap="round" stroke-linejoin="round"/><text x="483" y="179" fill="#56695d" font-size="16" font-weight="400" text-anchor="middle"><tspan x="483" dy="0">Trading trajectory</tspan></text><path d="M24 278H616" stroke="#b5c7bb" stroke-width="1"/><text x="24" y="303" fill="#56695d" font-size="16">As-of information · long-only weights · fixed backtest</text></g></svg>