<svg xmlns="http://www.w3.org/2000/svg" width="640" height="320" viewBox="0 0 640 320" role="img" aria-labelledby="title-18 desc-18"><title id="title-18">Seven-line plastic sequencing</title><desc id="desc-18">Exactly seven production lanes show assigned order sequences. A changeover gap and a due-time marker illustrate compatibility, capacity, and tardiness checks; durations are schematic.</desc><defs><marker id="arrow-18" viewBox="0 0 10 10" refX="8" refY="5" markerWidth="6" markerHeight="6" orient="auto-start-reverse"><path d="M1 1 L9 5 L1 9" fill="none" stroke="#196748" stroke-width="1.6" stroke-linecap="round" stroke-linejoin="round"/></marker></defs><g font-family="Inter, Arial, sans-serif"><rect width="640" height="320" fill="#f3f6f4"/><text x="24" y="35" fill="#196748" font-size="16" font-weight="600">CASE 18</text><text x="116" y="35" fill="#13241d" font-size="20" font-weight="600">Seven-line plastic sequencing</text><path d="M24 51H616" stroke="#b5c7bb" stroke-width="1"/><text x="62" y="80" fill="#13241d" font-size="17" font-weight="600" text-anchor="middle"><tspan x="62" dy="0">Line</tspan></text><text x="325" y="80" fill="#13241d" font-size="18" font-weight="600" text-anchor="middle"><tspan x="325" dy="0">Order sequence →</tspan></text><text x="524" y="80" fill="#13241d" font-size="17" font-weight="600" text-anchor="middle"><tspan x="524" dy="0">Due</tspan></text><text x="48" y="107" fill="#196748" font-size="17" font-weight="600" text-anchor="start"><tspan x="48" dy="0">1</tspan></text><path d="M80 110 L610 110" fill="none" stroke="#b5c7bb" stroke-width="1" stroke-linecap="round" stroke-linejoin="round"/><text x="48" y="131" fill="#196748" font-size="17" font-weight="600" text-anchor="start"><tspan x="48" dy="0">2</tspan></text><path d="M80 134 L610 134" fill="none" stroke="#b5c7bb" stroke-width="1" stroke-linecap="round" stroke-linejoin="round"/><text x="48" y="155" fill="#196748" font-size="17" font-weight="600" text-anchor="start"><tspan x="48" dy="0">3</tspan></text><path d="M80 158 L610 158" fill="none" stroke="#b5c7bb" stroke-width="1" stroke-linecap="round" stroke-linejoin="round"/><text x="48" y="179" fill="#196748" font-size="17" font-weight="600" text-anchor="start"><tspan x="48" dy="0">4</tspan></text><path d="M80 182 L610 182" fill="none" stroke="#b5c7bb" stroke-width="1" stroke-linecap="round" stroke-linejoin="round"/><text x="48" y="203" fill="#196748" font-size="17" font-weight="600" text-anchor="start"><tspan x="48" dy="0">5</tspan></text><path d="M80 206 L610 206" fill="none" stroke="#b5c7bb" stroke-width="1" stroke-linecap="round" stroke-linejoin="round"/><text x="48" y="227" fill="#196748" font-size="17" font-weight="600" text-anchor="start"><tspan x="48" dy="0">6</tspan></text><path d="M80 230 L610 230" fill="none" stroke="#b5c7bb" stroke-width="1" stroke-linecap="round" stroke-linejoin="round"/><text x="48" y="251" fill="#196748" font-size="17" font-weight="600" text-anchor="start"><tspan x="48" dy="0">7</tspan></text><path d="M80 254 L610 254" fill="none" stroke="#b5c7bb" stroke-width="1" stroke-linecap="round" stroke-linejoin="round"/><rect x="88" y="92" width="115" height="18" rx="8" fill="#d5f17a" stroke="#196748" stroke-width="1.5"/><text x="145.5" y="106.0" fill="#13241d" font-size="16" font-weight="500" text-anchor="middle"><tspan x="145.5" dy="0">A</tspan></text><rect x="230" y="92" width="140" height="18" rx="8" fill="#ffffff" stroke="#196748" stroke-width="1.5"/><text x="300.0" y="106.0" fill="#13241d" font-size="16" font-weight="500" text-anchor="middle"><tspan x="300.0" dy="0">B</tspan></text><rect x="122" y="116" width="137" height="18" rx="8" fill="#4c8c87" stroke="#196748" stroke-width="1.5"/><text x="190.5" y="130.0" fill="#ffffff" font-size="16" font-weight="500" text-anchor="middle"><tspan x="190.5" dy="0">C</tspan></text><rect x="290" y="116" width="169" height="18" rx="8" fill="#d5f17a" stroke="#196748" stroke-width="1.5"/><text x="374.5" y="130.0" fill="#13241d" font-size="16" font-weight="500" text-anchor="middle"><tspan x="374.5" dy="0">D</tspan></text><rect x="88" y="140" width="192" height="18" rx="8" fill="#ffffff" stroke="#196748" stroke-width="1.5"/><text x="184.0" y="154.0" fill="#13241d" font-size="16" font-weight="500" text-anchor="middle"><tspan x="184.0" dy="0">E</tspan></text><rect x="190" y="164" width="105" height="18" rx="8" fill="#d5f17a" stroke="#196748" stroke-width="1.5"/><text x="242.5" y="178.0" fill="#13241d" font-size="16" font-weight="500" text-anchor="middle"><tspan x="242.5" dy="0">F</tspan></text><rect x="321" y="164" width="98" height="18" rx="8" fill="#4c8c87" stroke="#196748" stroke-width="1.5"/><text x="370.0" y="178.0" fill="#ffffff" font-size="16" font-weight="500" text-anchor="middle"><tspan x="370.0" dy="0">G</tspan></text><rect x="90" y="188" width="130" height="18" rx="8" fill="#4c8c87" stroke="#196748" stroke-width="1.5"/><text x="155.0" y="202.0" fill="#ffffff" font-size="16" font-weight="500" text-anchor="middle"><tspan x="155.0" dy="0">H</tspan></text><rect x="251" y="188" width="315" height="18" rx="8" fill="#d5f17a" stroke="#196748" stroke-width="1.5"/><text x="408.5" y="202.0" fill="#13241d" font-size="16" font-weight="500" text-anchor="middle"><tspan x="408.5" dy="0">I</tspan></text><rect x="146" y="212" width="165" height="18" rx="8" fill="#ffffff" stroke="#196748" stroke-width="1.5"/><text x="228.5" y="226.0" fill="#13241d" font-size="16" font-weight="500" text-anchor="middle"><tspan x="228.5" dy="0">J</tspan></text><rect x="89" y="236" width="166" height="18" rx="8" fill="#d5f17a" stroke="#196748" stroke-width="1.5"/><text x="172.0" y="250.0" fill="#13241d" font-size="16" font-weight="500" text-anchor="middle"><tspan x="172.0" dy="0">K</tspan></text><rect x="280" y="236" width="177" height="18" rx="8" fill="#ffffff" stroke="#196748" stroke-width="1.5"/><text x="368.5" y="250.0" fill="#13241d" font-size="16" font-weight="500" text-anchor="middle"><tspan x="368.5" dy="0">L</tspan></text><path d="M524 86 L524 260" fill="none" stroke="#196748" stroke-width="2" stroke-linecap="round" stroke-linejoin="round" stroke-dasharray="4 5"/><path d="M206 92 V87 H226 V92" fill="none" stroke="#196748" stroke-width="2" stroke-linecap="round" stroke-linejoin="round"/><text x="216" y="80" fill="#56695d" font-size="16" font-weight="400" text-anchor="middle"><tspan x="216" dy="0">Gap</tspan></text><path d="M528 208 L565 208" fill="none" stroke="#13241d" stroke-width="3" stroke-linecap="round" stroke-linejoin="round"/><text x="568" y="242" fill="#13241d" font-size="16" font-weight="600" text-anchor="middle"><tspan x="568" dy="0">Late</tspan></text><path d="M568 226 L568 211" fill="none" stroke="#56695d" stroke-width="1" stroke-linecap="round" stroke-linejoin="round"/><path d="M24 278H616" stroke="#b5c7bb" stroke-width="1"/><text x="24" y="303" fill="#56695d" font-size="16">Seven lines · compatibility · changeovers · tardiness</text></g></svg>