<svg xmlns="http://www.w3.org/2000/svg" width="640" height="320" viewBox="0 0 640 320" role="img" aria-labelledby="title-13 desc-13"><title id="title-13">Fixed-network inventory policy</title><desc id="desc-13">A historical-data inventory policy applies to a fixed network. An as-of boundary preserves temporal consistency while service records support evaluation.</desc><defs><marker id="arrow-13" viewBox="0 0 10 10" refX="8" refY="5" markerWidth="6" markerHeight="6" orient="auto-start-reverse"><path d="M1 1 L9 5 L1 9" fill="none" stroke="#196748" stroke-width="1.6" stroke-linecap="round" stroke-linejoin="round"/></marker></defs><g font-family="Inter, Arial, sans-serif"><rect width="640" height="320" fill="#f3f6f4"/><text x="24" y="35" fill="#196748" font-size="16" font-weight="600">CASE 13</text><text x="116" y="35" fill="#13241d" font-size="20" font-weight="600">Fixed-network inventory policy</text><path d="M24 51H616" stroke="#b5c7bb" stroke-width="1"/><text x="176" y="79" fill="#13241d" font-size="18" font-weight="600" text-anchor="middle"><tspan x="176" dy="0">Fixed network</tspan></text><path d="M77 145 L173 110" fill="none" stroke="#196748" stroke-width="2" stroke-linecap="round" stroke-linejoin="round" marker-end="url(#arrow-13)"/><path d="M77 145 L173 184" fill="none" stroke="#196748" stroke-width="2" stroke-linecap="round" stroke-linejoin="round" marker-end="url(#arrow-13)"/><path d="M217 110 L315 145" fill="none" stroke="#196748" stroke-width="2" stroke-linecap="round" stroke-linejoin="round" marker-end="url(#arrow-13)"/><path d="M217 184 L315 145" fill="none" stroke="#196748" stroke-width="2" stroke-linecap="round" stroke-linejoin="round" marker-end="url(#arrow-13)"/><circle cx="56" cy="145" r="22" fill="#ffffff" stroke="#196748" stroke-width="2"/><text x="56" y="150" fill="#13241d" font-size="19" font-weight="500" text-anchor="middle"><tspan x="56" dy="0">A</tspan></text><circle cx="195" cy="103" r="22" fill="#ffffff" stroke="#196748" stroke-width="2"/><text x="195" y="108" fill="#13241d" font-size="19" font-weight="500" text-anchor="middle"><tspan x="195" dy="0">B</tspan></text><circle cx="195" cy="190" r="22" fill="#ffffff" stroke="#196748" stroke-width="2"/><text x="195" y="195" fill="#13241d" font-size="19" font-weight="500" text-anchor="middle"><tspan x="195" dy="0">C</tspan></text><circle cx="336" cy="145" r="22" fill="#ffffff" stroke="#196748" stroke-width="2"/><text x="336" y="150" fill="#13241d" font-size="19" font-weight="500" text-anchor="middle"><tspan x="336" dy="0">D</tspan></text><rect x="38" y="174" width="10" height="9" rx="1" fill="#d5f17a" stroke="#196748" stroke-width="1"/><rect x="51" y="174" width="10" height="9" rx="1" fill="#d5f17a" stroke="#196748" stroke-width="1"/><rect x="64" y="174" width="10" height="9" rx="1" fill="#d5f17a" stroke="#196748" stroke-width="1"/><rect x="177" y="132" width="10" height="9" rx="1" fill="#d5f17a" stroke="#196748" stroke-width="1"/><rect x="190" y="132" width="10" height="9" rx="1" fill="#d5f17a" stroke="#196748" stroke-width="1"/><rect x="203" y="132" width="10" height="9" rx="1" fill="#d5f17a" stroke="#196748" stroke-width="1"/><rect x="177" y="219" width="10" height="9" rx="1" fill="#d5f17a" stroke="#196748" stroke-width="1"/><rect x="190" y="219" width="10" height="9" rx="1" fill="#d5f17a" stroke="#196748" stroke-width="1"/><rect x="203" y="219" width="10" height="9" rx="1" fill="#d5f17a" stroke="#196748" stroke-width="1"/><rect x="318" y="174" width="10" height="9" rx="1" fill="#d5f17a" stroke="#196748" stroke-width="1"/><rect x="331" y="174" width="10" height="9" rx="1" fill="#d5f17a" stroke="#196748" stroke-width="1"/><rect x="344" y="174" width="10" height="9" rx="1" fill="#d5f17a" stroke="#196748" stroke-width="1"/><text x="520" y="78" fill="#13241d" font-size="18" font-weight="600" text-anchor="middle"><tspan x="520" dy="0">Service records</tspan></text><rect x="437" y="94" width="171" height="124" rx="4" fill="#ffffff" stroke="#b5c7bb" stroke-width="1.5"/><path d="M451 112 L590 112" fill="none" stroke="#b5c7bb" stroke-width="2" stroke-linecap="round" stroke-linejoin="round"/><circle cx="459" cy="127" r="4" fill="#196748" stroke="#196748" stroke-width="2"/><path d="M475 127 L589 127" fill="none" stroke="#4c8c87" stroke-width="3" stroke-linecap="round" stroke-linejoin="round"/><path d="M451 145 L590 145" fill="none" stroke="#b5c7bb" stroke-width="2" stroke-linecap="round" stroke-linejoin="round"/><circle cx="459" cy="160" r="4" fill="#196748" stroke="#196748" stroke-width="2"/><path d="M475 160 L589 160" fill="none" stroke="#4c8c87" stroke-width="3" stroke-linecap="round" stroke-linejoin="round"/><path d="M451 178 L590 178" fill="none" stroke="#b5c7bb" stroke-width="2" stroke-linecap="round" stroke-linejoin="round"/><circle cx="459" cy="193" r="4" fill="#196748" stroke="#196748" stroke-width="2"/><path d="M475 193 L589 193" fill="none" stroke="#4c8c87" stroke-width="3" stroke-linecap="round" stroke-linejoin="round"/><path d="M365 145 L425 145" fill="none" stroke="#196748" stroke-width="2" stroke-linecap="round" stroke-linejoin="round" marker-end="url(#arrow-13)"/><path d="M28 268 L610 268" fill="none" stroke="#b5c7bb" stroke-width="2" stroke-linecap="round" stroke-linejoin="round" marker-end="url(#arrow-13)"/><rect x="28" y="239" width="227" height="25" rx="0" fill="#d5f17a" stroke="#d5f17a" stroke-width="1.5"/><path d="M255 230 L255 269" fill="none" stroke="#196748" stroke-width="2" stroke-linecap="round" stroke-linejoin="round"/><text x="137" y="258" fill="#13241d" font-size="17" font-weight="400" text-anchor="middle"><tspan x="137" dy="0">Historical data</tspan></text><text x="278" y="258" fill="#196748" font-size="17" font-weight="600" text-anchor="start"><tspan x="278" dy="0">as of t</tspan></text><text x="443" y="258" fill="#13241d" font-size="17" font-weight="400" text-anchor="start"><tspan x="443" dy="0">Policy → records</tspan></text><path d="M24 278H616" stroke="#b5c7bb" stroke-width="1"/><text x="24" y="303" fill="#56695d" font-size="16">Fixed network · historical data · time-consistent records</text></g></svg>