<svg xmlns="http://www.w3.org/2000/svg" width="640" height="320" viewBox="0 0 640 320" role="img" aria-labelledby="title-16 desc-16"><title id="title-16">Mixed-category CDC storage</title><desc id="desc-16">Category A and category B enter shared CDC storage and flow to customer demand. Shared storage and category-specific paths must satisfy capacity and balance constraints.</desc><defs><marker id="arrow-16" viewBox="0 0 10 10" refX="8" refY="5" markerWidth="6" markerHeight="6" orient="auto-start-reverse"><path d="M1 1 L9 5 L1 9" fill="none" stroke="#196748" stroke-width="1.6" stroke-linecap="round" stroke-linejoin="round"/></marker></defs><g font-family="Inter, Arial, sans-serif"><rect width="640" height="320" fill="#f3f6f4"/><text x="24" y="35" fill="#196748" font-size="16" font-weight="600">CASE 16</text><text x="116" y="35" fill="#13241d" font-size="20" font-weight="600">Mixed-category CDC storage</text><path d="M24 51H616" stroke="#b5c7bb" stroke-width="1"/><text x="85" y="83" fill="#13241d" font-size="18" font-weight="600" text-anchor="middle"><tspan x="85" dy="0">Categories</tspan></text><circle cx="86" cy="135" r="25" fill="#d5f17a" stroke="#196748" stroke-width="2"/><text x="86" y="140" fill="#13241d" font-size="21" font-weight="500" text-anchor="middle"><tspan x="86" dy="0">A</tspan></text><circle cx="86" cy="216" r="25" fill="#4c8c87" stroke="#196748" stroke-width="2"/><text x="86" y="221" fill="#ffffff" font-size="21" font-weight="500" text-anchor="middle"><tspan x="86" dy="0">B</tspan></text><path d="M120 135 L241 135" fill="none" stroke="#196748" stroke-width="2" stroke-linecap="round" stroke-linejoin="round" marker-end="url(#arrow-16)"/><path d="M120 216 L241 216" fill="none" stroke="#196748" stroke-width="2" stroke-linecap="round" stroke-linejoin="round" marker-end="url(#arrow-16)"/><rect x="253" y="83" width="173" height="175" rx="8" fill="#ffffff" stroke="#196748" stroke-width="2"/><text x="339" y="111" fill="#13241d" font-size="19" font-weight="600" text-anchor="middle"><tspan x="339" dy="0">Shared CDC</tspan></text><path d="M269 173 L408 173" fill="none" stroke="#196748" stroke-width="2" stroke-linecap="round" stroke-linejoin="round"/><rect x="276" y="127" width="35" height="37" rx="8" fill="#d5f17a" stroke="#196748" stroke-width="1.5"/><text x="293.5" y="150.5" fill="#13241d" font-size="18" font-weight="500" text-anchor="middle"><tspan x="293.5" dy="0">A</tspan></text><rect x="322" y="127" width="35" height="37" rx="8" fill="#4c8c87" stroke="#196748" stroke-width="1.5"/><text x="339.5" y="150.5" fill="#ffffff" font-size="18" font-weight="500" text-anchor="middle"><tspan x="339.5" dy="0">B</tspan></text><rect x="368" y="127" width="35" height="37" rx="8" fill="#d5f17a" stroke="#196748" stroke-width="1.5"/><text x="385.5" y="150.5" fill="#13241d" font-size="18" font-weight="500" text-anchor="middle"><tspan x="385.5" dy="0">A</tspan></text><path d="M269 230 L408 230" fill="none" stroke="#196748" stroke-width="2" stroke-linecap="round" stroke-linejoin="round"/><rect x="276" y="184" width="35" height="37" rx="8" fill="#d5f17a" stroke="#196748" stroke-width="1.5"/><text x="293.5" y="207.5" fill="#13241d" font-size="18" font-weight="500" text-anchor="middle"><tspan x="293.5" dy="0">A</tspan></text><rect x="322" y="184" width="35" height="37" rx="8" fill="#4c8c87" stroke="#196748" stroke-width="1.5"/><text x="339.5" y="207.5" fill="#ffffff" font-size="18" font-weight="500" text-anchor="middle"><tspan x="339.5" dy="0">B</tspan></text><rect x="368" y="184" width="35" height="37" rx="8" fill="#4c8c87" stroke="#196748" stroke-width="1.5"/><text x="385.5" y="207.5" fill="#ffffff" font-size="18" font-weight="500" text-anchor="middle"><tspan x="385.5" dy="0">B</tspan></text><path d="M436 135 H475 V154 H520" fill="none" stroke="#196748" stroke-width="2" stroke-linecap="round" stroke-linejoin="round" marker-end="url(#arrow-16)"/><path d="M436 216 H475 V203 H520" fill="none" stroke="#196748" stroke-width="2" stroke-linecap="round" stroke-linejoin="round" marker-end="url(#arrow-16)"/><circle cx="560" cy="178" r="32" fill="#ffffff" stroke="#196748" stroke-width="2"/><text x="561" y="183" fill="#13241d" font-size="16" font-weight="400" text-anchor="middle"><tspan x="561" dy="0">Demand</tspan></text><text x="559" y="239" fill="#196748" font-size="20" font-weight="600" text-anchor="middle"><tspan x="559" dy="0">A + B</tspan></text><path d="M24 278H616" stroke="#b5c7bb" stroke-width="1"/><text x="24" y="303" fill="#56695d" font-size="16">Shared storage · category flows · capacity · service</text></g></svg>